<svg width="51" height="57" viewBox="0 0 51 57" fill="none" xmlns="http://www.w3.org/2000/svg">
<path d="M10.2808 3.44901C11.0248 2.59888 10.9369 1.30826 10.0843 0.566313C9.23182 -0.175629 7.93755 -0.0879287 7.19352 0.762198L3.66459 4.79433C1.66285 7.0815 0.531268 9.99768 0.46779 13.0328L0.312954 20.4359C0.289361 21.564 1.18733 22.4976 2.31862 22.5212C3.44991 22.5447 4.38613 21.6492 4.40973 20.5211L4.56456 13.118C4.60799 11.0413 5.38223 9.04604 6.75185 7.48114L10.2808 3.44901Z" fill="white"/>
<path fill-rule="evenodd" clip-rule="evenodd" d="M9.75683 17.8534C10.1363 11.8039 15.1671 7.09122 21.2455 7.09122H22.7682V5.04815C22.7682 3.54368 23.9913 2.32405 25.5 2.32405C27.0087 2.32405 28.2318 3.54368 28.2318 5.04815V7.09122H29.7545C35.8329 7.09122 40.8637 11.8039 41.2431 17.8534L41.8469 27.4789C42.0771 31.1488 43.3126 34.6854 45.419 37.7035C47.3221 40.4305 45.6279 44.1968 42.3199 44.5926L33.0124 45.7064V48.6337C33.0124 52.771 29.649 56.125 25.5 56.125C21.351 56.125 17.9876 52.771 17.9876 48.6337V45.7064L8.68011 44.5926C5.37213 44.1968 3.67782 40.4305 5.581 37.7035C7.68737 34.6854 8.92292 31.1488 9.1531 27.4789L9.75683 17.8534ZM22.0853 48.6337C22.0853 50.5143 23.6141 52.0389 25.5 52.0389C27.3859 52.0389 28.9147 50.5143 28.9147 48.6337V46.5907H22.0853V48.6337Z" fill="white"/>
<path d="M40.9157 0.566316C40.0631 1.30826 39.9752 2.59888 40.7192 3.44901L44.2482 7.48114C45.6178 9.04605 46.392 11.0413 46.4354 13.118L46.5903 20.5211C46.6139 21.6492 47.5501 22.5447 48.6814 22.5212C49.8127 22.4976 50.7106 21.564 50.687 20.4359L50.5322 13.0328C50.4687 9.99769 49.3371 7.0815 47.3354 4.79433L43.8065 0.7622C43.0624 -0.087926 41.7682 -0.175627 40.9157 0.566316Z" fill="white"/>
</svg>
