<svg width="65" height="65" viewBox="0 0 65 65" fill="none" xmlns="http://www.w3.org/2000/svg">
<path fill-rule="evenodd" clip-rule="evenodd" d="M22.4272 20.5446C25.0319 16.4976 29.5784 13.8125 34.7552 13.8125C42.5566 13.8125 48.9338 19.9102 49.3808 27.5995C49.5525 27.5922 49.7251 27.5886 49.8985 27.5886C56.5959 27.5886 62.0252 33.0179 62.0252 39.7153C62.0252 46.4127 56.5959 51.8421 49.8985 51.8421H18.3501C9.56179 51.8421 2.4375 44.7178 2.4375 35.9295C2.4375 27.1413 9.56179 20.017 18.3501 20.017C19.7575 20.017 21.1244 20.2002 22.4272 20.5446ZM40.4385 32.2888C41.2317 31.4955 41.2317 30.2094 40.4385 29.4162C39.6452 28.6229 38.3591 28.6229 37.5658 29.4162L29.523 37.459L25.5426 33.4787C24.7494 32.6854 23.4633 32.6854 22.67 33.4787C21.8768 34.2719 21.8768 35.558 22.67 36.3513L28.0867 41.768C28.8799 42.5612 30.166 42.5612 30.9593 41.768L40.4385 32.2888Z" fill="white"/>
</svg>
