<svg width="48" height="48" viewBox="0 0 48 48" fill="none" xmlns="http://www.w3.org/2000/svg">
<path fill-rule="evenodd" clip-rule="evenodd" d="M6.5 24.0001C6.5 14.3351 14.335 6.50012 24 6.50012C33.665 6.50012 41.5 14.3351 41.5 24.0001C41.5 33.6651 33.665 41.5001 24 41.5001C14.335 41.5001 6.5 33.6651 6.5 24.0001ZM21.6996 18.6176C19.8325 20.1537 18.5851 22.3142 18.1884 24.6993L16.875 32.5954C16.5718 34.4184 18.6914 35.6422 20.1185 34.4681L26.3001 29.3826C28.1672 27.8465 29.4146 25.6859 29.8113 23.3009L31.1248 15.4047C31.428 13.5818 29.3083 12.358 27.8812 13.5321L21.6996 18.6176Z" fill="white"/>
<path d="M21 24.0001C21 22.3433 22.3431 21.0001 24 21.0001C25.6569 21.0001 27 22.3433 27 24.0001C27 25.657 25.6569 27.0001 24 27.0001C22.3431 27.0001 21 25.657 21 24.0001Z" fill="white"/>
</svg>
