<svg width="18" height="17" viewBox="0 0 18 17" fill="none" xmlns="http://www.w3.org/2000/svg">
<path d="M17.0811 8.42204C17.0811 12.8417 13.4919 16.4245 9.06448 16.4245C4.63702 16.4245 1.04785 12.8417 1.04785 8.42204C1.04785 4.00242 4.63702 0.419613 9.06448 0.419613C13.4919 0.419613 17.0811 4.00242 17.0811 8.42204Z" fill="#403B45" stroke="#403B45" stroke-width="0.8" stroke-miterlimit="10" stroke-linecap="round" stroke-linejoin="round"/>
<path fill-rule="evenodd" clip-rule="evenodd" d="M13.5596 5.72095C13.7692 5.93022 13.7692 6.26952 13.5596 6.47879L8.54916 11.4803C8.33951 11.6896 7.99961 11.6896 7.78997 11.4803L4.92689 8.6223C4.71724 8.41303 4.71724 8.07373 4.92689 7.86446C5.13653 7.65518 5.47643 7.65518 5.68608 7.86446L8.16956 10.3435L12.8004 5.72095C13.01 5.51168 13.3499 5.51168 13.5596 5.72095Z" fill="white"/>
</svg>
