<svg width="18" height="17" viewBox="0 0 18 17" fill="none" xmlns="http://www.w3.org/2000/svg">
<path d="M9.06448 16.4336C13.4919 16.4336 17.0811 12.8507 17.0811 8.43113C17.0811 4.01151 13.4919 0.428707 9.06448 0.428707C4.63702 0.428707 1.04785 4.01151 1.04785 8.43113C1.04785 12.8507 4.63702 16.4336 9.06448 16.4336Z" stroke="white" stroke-width="0.8" stroke-miterlimit="10" stroke-linecap="round" stroke-linejoin="round"/>
<path fill-rule="evenodd" clip-rule="evenodd" d="M13.5596 5.73004C13.7692 5.93932 13.7692 6.27862 13.5596 6.48789L8.54916 11.4894C8.33951 11.6987 7.99961 11.6987 7.78997 11.4894L4.92689 8.6314C4.71724 8.42212 4.71724 8.08282 4.92689 7.87355C5.13653 7.66428 5.47643 7.66428 5.68608 7.87355L8.16956 10.3526L12.8004 5.73004C13.01 5.52077 13.3499 5.52077 13.5596 5.73004Z" fill="white"/>
</svg>
