<svg width="48" height="48" viewBox="0 0 48 48" fill="none" xmlns="http://www.w3.org/2000/svg">
<path d="M16.8 10.5001C11.2383 10.5001 6.5 14.6587 6.5 20.0597C6.5 23.7856 8.24469 26.9225 10.557 29.521C12.8613 32.1105 15.8343 34.2841 18.5219 36.1034L23.1592 39.2423C23.667 39.5861 24.333 39.5861 24.8408 39.2423L29.4781 36.1034C32.1657 34.2841 35.1387 32.1105 37.443 29.521C39.7553 26.9225 41.5 23.7856 41.5 20.0597C41.5 14.6587 36.7617 10.5001 31.2 10.5001C28.3331 10.5001 25.8103 11.8444 24 13.5838C22.1897 11.8444 19.6669 10.5001 16.8 10.5001Z" fill="white"/>
</svg>
