<svg width="48" height="48" viewBox="0 0 48 48" fill="none" xmlns="http://www.w3.org/2000/svg">
<path fill-rule="evenodd" clip-rule="evenodd" d="M14.5351 9.31723C20.8332 8.76975 27.1669 8.76975 33.465 9.31723L36.4854 9.57979C39.3756 9.83102 41.7169 12.0303 42.1483 14.8991C43.0556 20.9325 43.0556 27.0677 42.1483 33.1011C42.0689 33.6289 41.9249 34.1341 41.7247 34.6086C41.592 34.9232 41.1825 34.9709 40.9528 34.7183L32.1099 24.9911C31.7104 24.5516 31.0891 24.3893 30.5256 24.5771L25.464 26.2643L18.1211 18.0036C17.8466 17.6948 17.457 17.5129 17.0441 17.5008C16.6311 17.4886 16.2314 17.6473 15.9393 17.9395L6.11109 27.7677C5.8086 28.0702 5.29272 27.8777 5.26861 27.4506C5.03213 23.2628 5.22651 19.0568 5.85173 14.8991C6.28312 12.0303 8.62446 9.83102 11.5146 9.57979L14.5351 9.31723ZM28 18.0001C28 16.3433 29.3431 15.0001 31 15.0001C32.6569 15.0001 34 16.3433 34 18.0001C34 19.657 32.6569 21.0001 31 21.0001C29.3431 21.0001 28 19.657 28 18.0001Z" fill="white"/>
<path d="M5.92267 32.1988C5.81196 32.3095 5.75937 32.4657 5.78142 32.6207C5.80422 32.7809 5.82765 32.941 5.85173 33.1011C6.28312 35.9699 8.62446 38.1692 11.5146 38.4204L14.5351 38.683C20.8332 39.2305 27.1669 39.2305 33.465 38.683L36.4854 38.4204C37.3347 38.3466 38.1366 38.1046 38.8565 37.7268C39.1294 37.5836 39.1753 37.2229 38.968 36.9949L30.7665 27.9731C30.6333 27.8266 30.4262 27.7725 30.2384 27.8351L25.4743 29.4231C24.9051 29.6129 24.2775 29.4451 23.8789 28.9967L17.2881 21.582C17.0969 21.367 16.7642 21.3572 16.5608 21.5606L5.92267 32.1988Z" fill="white"/>
</svg>
