<svg width="65" height="65" viewBox="0 0 65 65" fill="none" xmlns="http://www.w3.org/2000/svg">
<path d="M24.2349 8.43454C20.5421 8.02182 16.726 8.02182 13.0332 8.43454C10.6575 8.70006 8.73643 10.5709 8.45628 12.9662C8.01457 16.7427 8.01457 20.5579 8.45628 24.3345C8.73643 26.7298 10.6575 28.6006 13.0332 28.8661C16.726 29.2788 20.5421 29.2788 24.2349 28.8661C26.6106 28.6006 28.5316 26.7298 28.8118 24.3345C29.2535 20.5579 29.2535 16.7427 28.8118 12.9662C28.5316 10.5709 26.6106 8.70006 24.2349 8.43454Z" fill="white"/>
<path d="M24.2349 35.5179C20.5421 35.1052 16.726 35.1052 13.0332 35.5179C10.6575 35.7834 8.73643 37.6542 8.45628 40.0495C8.01457 43.8261 8.01457 47.6412 8.45628 51.4178C8.73643 53.8131 10.6575 55.6839 13.0332 55.9494C16.726 56.3622 20.5421 56.3622 24.2349 55.9494C26.6106 55.6839 28.5316 53.8131 28.8118 51.4178C29.2535 47.6412 29.2535 43.8261 28.8118 40.0495C28.5316 37.6542 26.6106 35.7834 24.2349 35.5179Z" fill="white"/>
<path d="M51.3183 8.43454C47.6255 8.02182 43.8093 8.02182 40.1165 8.43454C37.7408 8.70006 35.8198 10.5709 35.5397 12.9662C35.0979 16.7427 35.0979 20.5579 35.5397 24.3345C35.8198 26.7298 37.7408 28.6006 40.1165 28.8661C43.8093 29.2788 47.6255 29.2788 51.3183 28.8661C53.694 28.6006 55.615 26.7298 55.8952 24.3345C56.3369 20.5579 56.3369 16.7427 55.8952 12.9662C55.615 10.5709 53.694 8.70006 51.3183 8.43454Z" fill="white"/>
<path d="M51.3183 35.5179C47.6255 35.1052 43.8093 35.1052 40.1165 35.5179C37.7408 35.7834 35.8198 37.6542 35.5397 40.0495C35.0979 43.8261 35.0979 47.6412 35.5397 51.4178C35.8198 53.8131 37.7408 55.6839 40.1165 55.9494C43.8093 56.3622 47.6255 56.3622 51.3183 55.9494C53.694 55.6839 55.615 53.8131 55.8952 51.4178C56.3369 47.6412 56.3369 43.8261 55.8952 40.0495C55.615 37.6542 53.694 35.7834 51.3183 35.5179Z" fill="white"/>
</svg>
