<svg width="153" height="12" viewBox="0 0 153 12" fill="none" xmlns="http://www.w3.org/2000/svg">
<path d="M0.70636 6.13669C0.70636 8.34583 2.49722 10.1367 4.70636 10.1367C6.9155 10.1367 8.70636 8.34583 8.70636 6.13669C8.70636 3.92755 6.9155 2.13669 4.70636 2.13669C2.49722 2.13669 0.70636 3.92755 0.70636 6.13669ZM152.543 6.66702C152.836 6.37413 152.836 5.89925 152.543 5.60636L147.77 0.833387C147.477 0.540494 147.002 0.540494 146.709 0.833387C146.416 1.12628 146.416 1.60115 146.709 1.89405L150.952 6.13669L146.709 10.3793C146.416 10.6722 146.416 11.1471 146.709 11.44C147.002 11.7329 147.477 11.7329 147.77 11.44L152.543 6.66702ZM4.70636 6.88669H152.013V5.38669H4.70636V6.88669Z" fill="white"/>
</svg>
