<svg width="226" height="215" viewBox="0 0 226 215" fill="none" xmlns="http://www.w3.org/2000/svg">
<path d="M34.25 158.25H180.5C205.353 158.25 225.5 138.103 225.5 113.25C225.5 92.1432 210.969 74.4305 191.365 69.5703C191.619 67.2904 191.75 64.973 191.75 62.625C191.75 28.4524 164.048 0.75 129.875 0.75C101.531 0.75 77.6388 19.8079 70.3126 45.8084C69.5466 45.7696 68.7756 45.75 68 45.75C43.1472 45.75 23 65.8972 23 90.75C23 91.3887 23.0133 92.0243 23.0397 92.6565C9.91051 97.2784 0.5 109.79 0.5 124.5C0.5 143.14 15.6104 158.25 34.25 158.25Z" fill="#E0A12E"/>
<path d="M70.1486 169.5H43.3514C39.1699 169.5 36.4503 173.901 38.3203 177.641L56.75 214.5L75.1797 177.641C77.0497 173.901 74.3301 169.5 70.1486 169.5Z" fill="#E0A12E"/>
<path d="M79.0859 203.578L94.0391 173.672C95.3175 171.115 97.9306 169.5 100.789 169.5C106.399 169.5 110.048 175.404 107.539 180.422L92.5859 210.328C91.3075 212.885 88.6944 214.5 85.8359 214.5C80.2258 214.5 76.5769 208.596 79.0859 203.578Z" fill="#E0A12E"/>
<path d="M146.586 203.578L161.539 173.672C162.817 171.115 165.431 169.5 168.289 169.5C173.899 169.5 177.548 175.404 175.039 180.422L160.086 210.328C158.808 212.885 156.194 214.5 153.336 214.5C147.726 214.5 144.077 208.596 146.586 203.578Z" fill="#E0A12E"/>
<path d="M112.836 203.578L127.789 173.672C129.067 171.115 131.681 169.5 134.539 169.5C140.149 169.5 143.798 175.404 141.289 180.422L126.336 210.328C125.058 212.885 122.444 214.5 119.586 214.5C113.976 214.5 110.327 208.596 112.836 203.578Z" fill="#E0A12E"/>
</svg>
